<svg xmlns="http://www.w3.org/2000/svg" viewBox="31 31 131 66">
  <path fill="#002c5f" d="M161.637 63.934c0 18.033-29.266 32.814-65.185 32.814-36.066 0-65.185-14.782-65.185-32.814 0-18.181 29.119-32.962 65.185-32.962 35.919-.001 65.185 14.78 65.185 32.962zm-68.289-4.582c5.617-1.035 11.086-2.957 15.373-4.583 13.895-4.878 20.398-9.903 21.729-11.086 1.773-1.626.443-2.217-1.184-2.808-9.459-2.809-23.797-4.878-32.961-4.434-6.651.147-10.347 7.39-11.825 10.494-6.948 14.633 5.468 13.155 8.868 12.417zm-42.57 20.693c.295-.591 11.234-26.163 24.093-40.057 1.626-1.478-.148-1.773-2.217-1.33-21.284 4.138-36.066 13.894-36.066 25.128 0 6.208 4.434 11.973 11.825 16.555 1.035.591 2.069.148 2.365-.296zm48.63-11.677c-5.617 1.035-11.086 2.957-15.373 4.583-13.895 4.877-20.398 10.051-21.728 11.233-1.774 1.478-.444 2.217 1.182 2.661 9.46 2.809 23.798 4.878 32.962 4.582 6.651-.295 10.347-7.538 11.972-10.643 6.802-14.633-5.614-13.007-9.015-12.416zm56.76-4.434c0-6.208-4.287-11.825-11.824-16.407-1.035-.739-1.922-.295-2.365.295-.297.443-11.234 26.015-24.094 39.909-1.479 1.626.148 1.922 2.217 1.479 21.285-4.287 36.066-14.043 36.066-25.276z"/>
</svg>
